<svg id="visual" viewBox="0 0 900 600" width="900" height="600" xmlns="http://www.w3.org/2000/svg" xmlns:xlink="http://www.w3.org/1999/xlink" version="1.1"><path d="M0 205L13.7 198C27.3 191 54.7 177 82 175C109.3 173 136.7 183 163.8 190C191 197 218 201 245.2 211C272.3 221 299.7 237 327 235C354.3 233 381.7 213 409 203C436.3 193 463.7 193 491 186C518.3 179 545.7 165 573 161C600.3 157 627.7 163 654.8 155C682 147 709 125 736.2 117C763.3 109 790.7 115 818 121C845.3 127 872.7 133 886.3 136L900 139L900 0L886.3 0C872.7 0 845.3 0 818 0C790.7 0 763.3 0 736.2 0C709 0 682 0 654.8 0C627.7 0 600.3 0 573 0C545.7 0 518.3 0 491 0C463.7 0 436.3 0 409 0C381.7 0 354.3 0 327 0C299.7 0 272.3 0 245.2 0C218 0 191 0 163.8 0C136.7 0 109.3 0 82 0C54.7 0 27.3 0 13.7 0L0 0Z" fill="#474247"></path><path d="M0 379L13.7 358C27.3 337 54.7 295 82 295C109.3 295 136.7 337 163.8 358C191 379 218 379 245.2 380C272.3 381 299.7 383 327 385C354.3 387 381.7 389 409 375C436.3 361 463.7 331 491 314C518.3 297 545.7 293 573 306C600.3 319 627.7 349 654.8 350C682 351 709 323 736.2 322C763.3 321 790.7 347 818 352C845.3 357 872.7 341 886.3 333L900 325L900 137L886.3 134C872.7 131 845.3 125 818 119C790.7 113 763.3 107 736.2 115C709 123 682 145 654.8 153C627.7 161 600.3 155 573 159C545.7 163 518.3 177 491 184C463.7 191 436.3 191 409 201C381.7 211 354.3 231 327 233C299.7 235 272.3 219 245.2 209C218 199 191 195 163.8 188C136.7 181 109.3 171 82 173C54.7 175 27.3 189 13.7 196L0 203Z" fill="#353135"></path><path d="M0 433L13.7 425C27.3 417 54.7 401 82 413C109.3 425 136.7 465 163.8 481C191 497 218 489 245.2 480C272.3 471 299.7 461 327 458C354.3 455 381.7 459 409 459C436.3 459 463.7 455 491 450C518.3 445 545.7 439 573 436C600.3 433 627.7 433 654.8 428C682 423 709 413 736.2 412C763.3 411 790.7 419 818 427C845.3 435 872.7 443 886.3 447L900 451L900 323L886.3 331C872.7 339 845.3 355 818 350C790.7 345 763.3 319 736.2 320C709 321 682 349 654.8 348C627.7 347 600.3 317 573 304C545.7 291 518.3 295 491 312C463.7 329 436.3 359 409 373C381.7 387 354.3 385 327 383C299.7 381 272.3 379 245.2 378C218 377 191 377 163.8 356C136.7 335 109.3 293 82 293C54.7 293 27.3 335 13.7 356L0 377Z" fill="#232023"></path><path d="M0 511L13.7 506C27.3 501 54.7 491 82 497C109.3 503 136.7 525 163.8 532C191 539 218 531 245.2 532C272.3 533 299.7 543 327 549C354.3 555 381.7 557 409 557C436.3 557 463.7 555 491 551C518.3 547 545.7 541 573 536C600.3 531 627.7 527 654.8 519C682 511 709 499 736.2 495C763.3 491 790.7 495 818 506C845.3 517 872.7 535 886.3 544L900 553L900 449L886.3 445C872.7 441 845.3 433 818 425C790.7 417 763.3 409 736.2 410C709 411 682 421 654.8 426C627.7 431 600.3 431 573 434C545.7 437 518.3 443 491 448C463.7 453 436.3 457 409 457C381.7 457 354.3 453 327 456C299.7 459 272.3 469 245.2 478C218 487 191 495 163.8 479C136.7 463 109.3 423 82 411C54.7 399 27.3 415 13.7 423L0 431Z" fill="#1f1c1f"></path><path d="M0 601L13.7 601C27.3 601 54.7 601 82 601C109.3 601 136.7 601 163.8 601C191 601 218 601 245.2 601C272.3 601 299.7 601 327 601C354.3 601 381.7 601 409 601C436.3 601 463.7 601 491 601C518.3 601 545.7 601 573 601C600.3 601 627.7 601 654.8 601C682 601 709 601 736.2 601C763.3 601 790.7 601 818 601C845.3 601 872.7 601 886.3 601L900 601L900 551L886.3 542C872.7 533 845.3 515 818 504C790.7 493 763.3 489 736.2 493C709 497 682 509 654.8 517C627.7 525 600.3 529 573 534C545.7 539 518.3 545 491 549C463.7 553 436.3 555 409 555C381.7 555 354.3 553 327 547C299.7 541 272.3 531 245.2 530C218 529 191 537 163.8 530C136.7 523 109.3 501 82 495C54.7 489 27.3 499 13.7 504L0 509Z" fill="#1b191b"></path></svg>